<svg version="1.2" xmlns="http://www.w3.org/2000/svg" viewBox="0 0 1024 480" width="1024" height="480">
	<title>font_preview (2)-svg</title>
	<defs>
		<filter x="-50%" y="-50%" width="200%" height="200%" id="f1" ><feDropShadow dx="0" dy="0" stdDeviation="16.25" flood-color="#000000" flood-opacity="1.9"/></filter>
		<filter x="-50%" y="-50%" width="200%" height="200%" id="f2" ><feDropShadow dx="0" dy="0" stdDeviation="16.25" flood-color="#000000" flood-opacity="1.9"/></filter>
		<filter x="-50%" y="-50%" width="200%" height="200%" id="f3" ><feDropShadow dx="0" dy="0" stdDeviation="16.25" flood-color="#000000" flood-opacity="1.9"/></filter>
		<filter x="-50%" y="-50%" width="200%" height="200%" id="f4" ><feDropShadow dx="0" dy="0" stdDeviation="16.25" flood-color="#000000" flood-opacity="1.9"/></filter>
		<filter x="-50%" y="-50%" width="200%" height="200%" id="f5" ><feDropShadow dx="0" dy="0" stdDeviation="16.25" flood-color="#000000" flood-opacity="1.9"/></filter>
		<filter x="-50%" y="-50%" width="200%" height="200%" id="f6" ><feDropShadow dx="0" dy="0" stdDeviation="16.25" flood-color="#000000" flood-opacity="1.9"/></filter>
	</defs>
	<style>
		.s0 { filter: url(#f1);fill: #239ed7;stroke: #000000;paint-order:stroke fill markers;stroke-linejoin: round;stroke-width: 6 } 
		.s1 { filter: url(#f2);fill: #398cb6;stroke: #000000;paint-order:stroke fill markers;stroke-linejoin: round;stroke-width: 6 } 
		.s2 { filter: url(#f3);fill: #527791;stroke: #000000;paint-order:stroke fill markers;stroke-linejoin: round;stroke-width: 6 } 
		.s3 { filter: url(#f4);fill: #5e6c6c;stroke: #000000;paint-order:stroke fill markers;stroke-linejoin: round;stroke-width: 6 } 
		.s4 { filter: url(#f5);fill: #567958;stroke: #000000;paint-order:stroke fill markers;stroke-linejoin: round;stroke-width: 6 } 
		.s5 { filter: url(#f6);fill: #4f8642;stroke: #000000;paint-order:stroke fill markers;stroke-linejoin: round;stroke-width: 6 } 
	</style>
	<g id="title">
		<path id="path12973" class="s0" d="m171.8 226.5c-6-10.8-14.2-19.3-24.4-25-9.9-5.1-20.7-7.9-32.6-8.2-0.3 0-0.9-0.3-0.9-0.3h-65.3c-3.9 0-7.1 1.4-9.6 4-2.9 2.8-4 5.9-4 9.6 0 0.3 0 0.9 0 1.2 0 0.5 0 0.8 0 1.1v126.6c0 4.2 1.1 7.6 4 10.5 2.8 2.8 6.2 4 10.5 4 4.2 0 7.6-1.2 10.5-4 2.5-2.9 4-6.3 4-10.5v-80.1c0-6.8 1.7-12.7 5.3-18.4 3.7-5.4 8.8-9.7 15.4-13.1 6.5-3.1 13.9-4.8 21.8-4.8 13.7 0 24.4 4 32.7 11.9 8.2 8 12.5 19.6 12.5 34.7v69.8c0 4.2 1.1 7.6 3.9 10.5 2.9 2.8 6.3 4 10.5 4 4 0 7.4-1.2 10.2-4 2.9-2.9 4.3-6.3 4.3-10.5v-69.8c0-15.4-3.1-28.4-8.8-39.2z"/>
		<path id="path12975" fill-rule="evenodd" class="s1" d="m384.9 271.9c0 15-3.4 28.4-10.3 40.3-7 11.9-16.4 21.6-28.3 28.4-12 6.8-25.3 10.2-39.8 10.2h-64.4c-4 0-7.1-1.1-9.7-4-2.8-2.5-3.9-5.6-3.9-9.3v-195c0-4.3 1.1-7.7 3.9-10.5 2.6-2.6 6-4 10.5-4 4 0 7.4 1.4 10.3 4 2.8 2.8 4.2 6.2 4.2 10.5v76.6c6.6-7.9 14.5-14.5 24.1-19q14.1-6.8 30.7-6.8c13.6 0 25.8 3.4 36.9 10.2 11.1 7.1 19.9 16.5 26.1 28.4 6.3 11.9 9.7 25.5 9.7 40zm-27.9 0c0-9.9-2.2-19-6.8-27-4.5-7.9-10.5-14.4-18.1-19-7.7-4.5-16.2-7.1-25.6-7.1-9.6 0-18.1 2.6-25.8 7.1-7.7 4.6-13.6 11.1-17.9 19-4.5 8-6.5 17.1-6.5 27 0 10.2 2 19.3 6.5 27.3 4.3 8.2 10.2 14.7 17.9 19.3 7.7 4.5 16.2 6.8 25.8 6.8q14.1 0 25.6-6.8c7.6-4.6 13.6-11.1 18.1-19.3q6.8-12 6.8-27.3z"/>
		<path id="path12977" class="s2" d="m426.3 132c-2.8 2.8-3.9 6.2-3.9 10.2v155c0 10.2 1.7 19.3 5.4 27.2 3.4 8 8.5 14.2 15 18.7 6.5 4.6 13.9 6.6 22.1 6.6h0.6c5.7 0 10.2-1.2 13.9-4 3.4-2.6 5.4-6 5.4-10.2 0-4-1.4-7.4-3.7-10.2-2.2-2.6-5.4-4-9.1-4h-7.1q-6.3 0-10.2-6.8c-2.8-4.6-3.9-10.2-3.9-17.3v-155c0-4-1.5-7.4-4-10.2-2.9-2.6-6.3-4-10.2-4-4.3 0-7.7 1.4-10.3 4z"/>
		<path id="path12979" fill-rule="evenodd" class="s3" d="m643.3 231.3q10.2 17.9 10.2 40.9c0 15.3-3.4 28.7-9.9 40.6-6.8 11.9-15.9 21.3-27.8 28.1-11.9 6.8-25.3 9.9-40.3 9.9-15.3 0-28.7-3.1-40.6-9.9-11.9-6.8-21.3-16.2-27.8-28.1-6.8-11.9-9.9-25.3-9.9-40.6 0-15.3 3.1-29 9.9-40.9 6.5-11.9 15.9-21 27.8-27.8 11.9-6.8 25.3-10.2 40.6-10.2q22.1 0 40 10.2c11.9 6.8 21 15.9 27.8 27.8zm-111.8 13.4c-4.5 8.2-6.5 17.3-6.5 27.5 0 10.2 2 19.6 6.5 27.5q6.4 11.9 17.9 18.8c7.6 4.5 16.4 6.8 26.1 6.8 9.6 0 18.2-2.3 25.8-6.8q11.5-6.9 17.9-18.8c4.3-7.9 6.5-17.3 6.5-27.5 0-10.2-2.2-19.3-6.5-27.5-4.3-8-10.2-14.5-17.9-19.1-7.6-4.5-16.2-6.8-25.8-6.8-9.7 0-18.5 2.3-26.1 6.8-7.7 4.6-13.6 11.1-17.9 19.1z"/>
		<path id="path12981" class="s4" d="m821.5 218.8c-14.7-17-33.5-25.5-55.6-25.5-14.8 0-28.1 3.4-39.8 10.2-11.9 6.8-21 16.2-27.5 28.1-6.5 11.9-9.6 25.5-9.6 40.6 0 14.7 3.1 28.4 9.9 40.3q10.2 17.9 28.1 28.1c11.9 6.8 25.3 10.2 40.3 10.2 20.4 0 37.5-6.2 51.1-19q3.4-3.4 3.4-7.7c0-3.7-2-7.1-5.4-10.2-2.3-1.7-4.8-2.5-7.4-2.5-3.4 0-7.1 1.4-10.5 3.9-7.9 6.8-18.4 10-31.2 10q-14.9 0-26.4-6.8-11.5-6.9-17.9-18.8c-4.2-7.9-6.2-17.3-6.2-27.5 0-15.9 4.5-29 13.6-38.6 9.1-9.7 20.7-14.8 35.5-14.8 7.1 0 13.3 1.4 19 3.7 5.7 2.3 10.8 6 15.6 11.1q4.3 5.1 11.1 5.1c2.2 0 4.5-0.6 6.5-2 4-2.8 6.3-6.2 6.3-10.5 0-2.8-1.2-5.1-2.9-7.4z"/>
		<path id="path12983" class="s5" d="m988 337.8c0-3.5-1.1-6.3-3.1-8.6l-55.1-67.5 52.2-46.6c2.9-2.2 4.6-5.6 4.6-9.6 0-3.4-1.4-6.3-3.7-8.8-2.6-2.9-5.7-4.6-9.7-4.6-3.4 0-6.5 1.5-8.8 3.7l-68.9 61.6v-115.5c0-4-1.4-7.4-4-9.9-2.6-2.6-6-4-9.9-4-4.3 0-7.7 1.4-10.3 4-2.5 2.5-3.6 5.9-3.6 9.9v193.9c0 4.2 1.1 7.6 3.6 10.2 2.6 2.5 6 3.7 10.3 3.7 3.9 0 7.3-1.2 9.9-3.7 2.6-2.6 4-6 4-10.2v-43.5l14.2-12.4 53.9 66.7q3.8 5.1 10.2 5.1c3.1 0 6.3-1.2 9.1-3.4 3.4-2.9 5.1-6.3 5.1-10.5z"/>
	</g>
</svg>